<svg version="1.1" id="Layer_1" xmlns="http://www.w3.org/2000/svg" xmlns:xlink="http://www.w3.org/1999/xlink" x="0px" y="0px"
	 width="100%" viewBox="0 0 1024 1024" enable-background="new 0 0 1024 1024" xml:space="preserve">
<path fill="#000000" opacity="1.000000" stroke="none" 
	d="
M415.131653,846.795044 
	C413.499969,844.246887 412.228180,841.871521 410.578888,839.796143 
	C407.802246,836.302063 404.323181,834.412170 399.634888,835.801514 
	C388.276184,839.167603 380.534363,833.921448 373.101685,825.811523 
	C364.242859,816.145508 356.569031,805.287354 346.041016,797.227295 
	C342.660522,794.639343 338.915100,792.475403 335.144592,790.480530 
	C333.953339,789.850342 331.708313,788.831909 330.748383,790.981384 
	C329.873291,792.940857 331.799316,793.379761 333.136108,794.022095 
	C334.229675,794.547546 335.054749,795.339111 334.939667,796.711182 
	C334.427979,798.654480 332.371216,797.889099 330.773529,799.192444 
	C335.999634,809.057129 341.282043,818.929626 347.868256,828.177246 
	C354.504486,837.495056 364.101318,842.874817 374.324219,848.467407 
	C369.206757,852.751282 365.423981,850.710388 361.938629,848.569885 
	C355.241028,844.456787 349.213806,839.485046 344.078918,833.473267 
	C336.489624,824.587891 329.392883,815.352661 323.703064,805.109436 
	C320.422546,799.203613 316.516327,794.029663 310.253479,790.814209 
	C305.949066,788.604187 304.853638,783.815918 302.990784,779.767944 
	C301.800049,777.180542 300.760101,773.691589 297.233459,775.136230 
	C293.445190,776.687988 293.580505,780.314758 295.186035,783.695435 
	C298.310547,790.274475 302.751617,796.252136 303.589203,803.850830 
	C303.974487,807.345947 303.669006,810.366272 300.345306,811.955078 
	C296.849854,813.626160 293.842285,812.099915 291.456818,809.377014 
	C286.892639,804.167297 285.119354,797.689209 283.816040,791.157288 
	C282.478149,784.452148 280.059174,778.602112 275.139801,773.584045 
	C267.872345,766.171082 261.587280,757.671509 257.522705,748.253052 
	C250.396622,731.740356 238.509720,719.520203 224.877518,708.726074 
	C217.848969,703.160828 214.309265,696.134888 212.644867,687.713074 
	C211.837357,683.627075 211.020157,679.501343 208.220673,676.184082 
	C202.917847,669.900513 198.602264,669.942749 193.626862,676.472473 
	C190.102020,681.098450 186.228943,684.958313 180.076141,685.849365 
	C177.331253,686.246948 175.128708,685.584412 173.147720,683.893005 
	C165.170059,677.081482 163.349136,668.764282 167.799942,659.198547 
	C168.708252,657.246521 169.940704,655.440186 171.079407,653.601196 
	C179.261993,640.386169 177.883957,626.932678 166.673355,616.243835 
	C160.941788,610.779053 157.953720,604.749268 158.888077,596.729736 
	C159.288681,593.291260 158.819534,589.747620 158.695190,586.253540 
	C158.634140,584.537781 158.181320,582.882690 156.748154,581.816345 
	C147.392075,574.854919 147.515045,564.636658 148.026611,554.697205 
	C148.315262,549.088745 150.832596,544.004211 155.420731,539.909241 
	C162.284027,533.783752 161.976334,531.849426 159.066422,523.306824 
	C156.045822,514.439331 154.038681,505.419159 160.433884,496.642548 
	C164.297272,491.340485 163.271683,484.244965 159.141510,479.263641 
	C156.487854,476.063110 154.374344,473.126221 155.462769,468.122711 
	C156.279373,464.368835 154.115967,460.039368 153.668396,455.923859 
	C152.417938,444.425842 155.422226,434.495667 165.072250,427.333435 
	C168.951004,424.454620 169.792618,420.747314 167.245605,416.996552 
	C165.210922,414.000244 166.851089,412.767456 168.374481,410.646240 
	C174.835236,401.650177 181.397125,392.804626 180.132217,380.529694 
	C179.336227,372.805298 178.761032,364.886414 180.721237,357.158875 
	C181.176575,355.363922 181.207214,353.124664 183.630661,352.289764 
	C186.451965,354.390442 184.794769,357.312469 185.244064,359.746887 
	C185.546844,361.387421 185.335434,363.310486 187.572449,363.573883 
	C189.770035,363.832672 190.225571,362.002228 190.787018,360.417877 
	C194.162827,350.891907 194.687851,340.885712 195.597153,330.967255 
	C196.350937,322.745178 199.183517,315.138306 201.568222,307.421112 
	C204.722641,306.888977 204.882904,308.955597 205.424255,310.942017 
	C206.656830,315.464752 204.807556,319.878082 205.160629,324.362152 
	C205.320175,326.388458 205.090805,328.822296 207.568588,329.239380 
	C210.225082,329.686646 210.424973,327.009827 211.197159,325.255005 
	C213.424438,320.193390 214.858032,314.878326 215.611435,309.436066 
	C216.978775,299.558960 221.339127,290.691193 224.809158,281.539276 
	C225.900406,278.661194 227.463348,274.064789 231.390289,275.612915 
	C234.783188,276.950562 231.981949,280.893646 231.720413,283.705933 
	C231.368118,287.494354 228.081741,290.875519 230.286682,296.143463 
	C234.969482,290.261627 239.280899,285.104309 242.691025,279.282379 
	C251.179214,264.790741 261.654327,251.966980 274.387238,241.008881 
	C275.979736,239.638367 277.414459,237.866394 279.716675,237.899750 
	C281.346344,238.957352 280.188171,240.917572 281.605560,242.288818 
	C287.999817,240.599670 292.980042,237.332718 296.182556,230.937424 
	C300.416473,222.482361 305.669800,214.555771 309.651672,205.936722 
	C310.985321,203.050003 313.229279,200.735657 315.739655,198.736267 
	C320.451569,194.983459 325.377441,194.493027 330.082794,197.331879 
	C334.892303,200.233582 337.119141,205.368881 336.001801,211.032379 
	C335.663666,212.746384 334.282776,214.731995 336.433655,215.975235 
	C338.174744,216.981583 339.428436,215.174576 340.840179,214.405533 
	C350.765045,208.998932 360.371857,202.978348 370.942627,198.816299 
	C386.719238,192.604492 402.189728,185.735626 418.629425,181.109680 
	C437.571655,175.779541 456.965881,172.976288 476.123932,168.895416 
	C479.581146,168.159012 483.010162,167.379791 486.045044,165.673584 
	C495.407043,160.410294 505.469208,158.360260 515.917297,160.133560 
	C524.513062,161.592453 532.772522,164.979645 541.766968,164.076370 
	C542.865784,163.966019 544.276917,165.005707 545.240417,165.855759 
	C548.876282,169.063354 552.672424,170.879486 557.476990,168.355179 
	C558.930420,167.591537 560.491455,168.103394 561.785156,168.876083 
	C569.355591,173.397781 578.210693,172.503052 586.359741,174.636703 
	C592.009033,176.115845 597.862183,177.192978 603.990051,177.026108 
	C608.909912,176.892151 612.664612,181.146347 615.746582,184.773575 
	C619.363098,189.029861 623.278015,191.260529 628.967468,192.447113 
	C641.066467,194.970459 651.989807,200.728821 662.098206,207.957245 
	C667.381714,211.735504 673.026001,214.961456 678.884216,217.817368 
	C683.991760,220.307312 688.104187,224.165741 692.148865,228.075928 
	C692.722900,228.630859 693.403870,229.581345 693.984680,229.544830 
	C699.845764,229.176300 702.652771,233.539764 705.393127,237.335266 
	C709.328613,242.786255 715.792053,243.246216 720.936523,246.247360 
	C721.677185,246.679443 722.633362,246.371445 723.231873,245.721222 
	C726.613770,242.046997 729.497253,243.837738 732.113586,246.627182 
	C742.263489,257.448547 751.525146,269.006012 760.193604,281.036072 
	C761.759216,283.208801 763.321350,285.327850 765.321716,287.127777 
	C771.117737,292.342957 774.500244,299.157684 777.942810,305.979767 
	C779.855347,309.769745 782.043091,313.496735 784.618896,316.859955 
	C789.551331,323.300354 793.540039,330.059875 794.517822,338.291473 
	C794.652771,339.427979 794.970032,340.664886 795.590454,341.597473 
	C797.103271,343.871399 799.102539,346.070099 802.060974,345.343536 
	C804.883118,344.650421 804.796265,341.832397 804.643066,339.503845 
	C804.347900,335.017914 804.329651,330.553558 804.727051,326.071899 
	C805.015076,322.823914 806.037231,319.922424 807.983459,317.304871 
	C812.486328,311.248871 816.598511,311.203613 820.896545,317.335388 
	C823.892334,321.609467 825.017700,326.253418 823.766418,331.520721 
	C821.509644,341.021210 818.018921,350.306488 819.218750,360.421600 
	C819.682495,364.331177 820.586304,368.317139 824.096191,369.659943 
	C833.337280,373.195343 837.082153,380.278412 839.771423,389.133850 
	C842.291809,397.433380 841.345703,405.759552 841.874756,414.071442 
	C841.944397,415.165680 840.475647,416.281677 840.022644,417.500275 
	C838.847961,420.659973 838.369507,423.605774 842.308716,425.485291 
	C846.747925,427.603333 848.646118,432.105133 851.333618,435.835693 
	C852.085754,436.879730 851.952087,438.144104 851.249939,439.146484 
	C848.145752,443.577698 850.071960,447.212067 853.001282,451.018280 
	C855.509033,448.992493 856.001770,446.147339 856.644958,443.487152 
	C857.543823,439.769836 859.410156,436.703339 862.262024,434.263855 
	C864.195984,432.609589 866.416077,431.261658 869.097778,432.400482 
	C871.956299,433.614380 871.067688,436.300049 871.169495,438.522491 
	C871.220886,439.644196 870.971008,440.779633 870.848511,441.997192 
	C874.276855,442.703522 876.740417,439.397919 880.710205,440.379761 
	C878.485657,445.162537 875.538879,449.091003 871.097839,451.289886 
	C866.259460,453.685516 863.271240,457.162231 861.591309,462.182373 
	C860.216736,466.290100 858.121399,470.101135 855.806091,473.776764 
	C855.283875,474.605927 854.366455,475.800964 854.623291,476.407318 
	C856.415039,480.638306 853.205383,481.761841 850.564636,482.901215 
	C846.906433,484.479492 846.626160,486.450897 849.409241,489.678864 
	C854.042664,486.563385 861.640808,489.386414 863.889587,481.731323 
	C867.461365,481.831055 869.767822,483.295166 870.930725,486.756622 
	C868.105408,487.945740 867.295593,491.339447 863.686951,492.362335 
	C869.919312,497.555115 860.674683,499.178009 861.786316,503.708923 
	C865.658142,502.903870 869.084961,503.273621 868.528687,508.348572 
	C867.743225,515.514465 868.645081,519.381042 872.901489,524.192993 
	C866.159119,526.917053 859.580322,529.747192 853.770752,534.055481 
	C852.676758,534.866760 851.320801,535.305298 851.521362,536.943787 
	C851.705017,538.444397 852.821167,538.987427 854.173096,539.527466 
	C859.390564,541.611694 860.310791,543.522278 857.810059,546.514465 
	C859.562317,548.243774 864.707764,547.254456 862.367737,552.268494 
	C860.990173,555.220093 857.099854,554.710693 855.823853,557.537231 
	C853.483521,556.703003 853.022522,554.949890 852.558899,553.282654 
	C853.226929,551.242798 854.095459,552.933655 854.957886,553.031616 
	C856.103821,550.916504 855.211182,549.301758 853.774292,547.796814 
	C848.583069,549.728516 848.368591,551.252686 852.414673,557.005005 
	C851.736755,558.753601 850.417480,557.373108 849.447693,557.629517 
	C848.525574,557.873291 847.667786,558.360291 846.799377,558.732788 
	C846.927734,561.396301 849.273315,562.796082 849.807129,564.695251 
	C848.838196,566.879517 846.714905,565.254211 845.713806,566.610840 
	C846.981628,570.970581 845.656921,574.437561 842.525330,577.708374 
	C839.260010,581.118896 836.380798,584.839294 832.665222,587.883423 
	C829.220581,590.705627 829.512268,591.738464 833.036133,594.818176 
	C832.648499,597.154236 829.121094,597.325745 829.120911,600.026917 
	C830.952759,600.722534 831.811646,598.586792 833.850891,598.983582 
	C832.508972,601.535828 832.511475,604.191223 828.702026,605.444336 
	C824.956055,606.676697 824.221802,612.492920 825.871765,618.561340 
	C827.253723,619.807556 828.753845,618.170593 830.177795,618.726013 
	C831.507263,619.578674 831.639465,620.981384 831.419495,622.263306 
	C831.187073,623.617371 829.845520,624.370239 828.776184,623.637878 
	C827.011902,622.429565 825.227722,623.533081 823.493896,623.065002 
	C820.011841,622.124695 818.652466,623.980164 818.351807,627.183960 
	C817.832581,632.715332 815.749451,633.964294 810.639465,631.893188 
	C809.686829,633.206360 808.734619,634.519470 807.536377,636.171753 
	C810.889893,638.451599 810.798401,643.074951 814.033264,645.610291 
	C815.235413,646.552490 815.515503,648.208984 814.758057,649.241577 
	C812.349731,652.524780 814.054382,655.572632 815.227966,658.886719 
	C809.625000,660.256836 809.819214,654.055420 806.122681,653.357422 
	C810.251709,648.035583 810.251709,648.035583 809.188660,645.196167 
	C802.994202,647.426453 800.987061,654.380737 804.293030,662.812561 
	C798.846008,666.459167 796.195129,671.968628 795.925171,678.357300 
	C795.812134,681.031006 794.457825,681.393494 792.761108,681.851685 
	C787.169373,683.361511 783.794739,686.352478 782.512268,692.531311 
	C781.671082,696.584167 779.424805,700.526733 777.938477,704.579834 
	C776.829773,707.602966 772.870728,707.383179 771.148254,710.398926 
	C768.585754,714.885193 762.210327,716.293579 760.856140,722.112000 
	C760.730408,722.652344 760.048157,723.261108 759.487000,723.470703 
	C755.101501,725.108826 751.909058,727.447021 752.876587,732.903320 
	C753.072632,734.009216 752.243958,735.280579 751.093689,735.708496 
	C745.101990,737.937317 743.114014,743.281433 741.198853,748.542725 
	C739.712219,752.626831 736.171082,751.577148 733.329529,752.089966 
	C731.783569,752.369019 729.969177,751.399475 728.989197,753.435730 
	C727.820557,755.863953 730.717773,755.796631 731.321228,757.192017 
	C730.905212,758.886658 728.844116,757.694275 728.186768,758.945068 
	C728.133301,760.203674 730.028076,760.504517 729.416321,762.338684 
	C727.755737,764.477783 725.275391,763.095337 722.629211,762.653687 
	C723.235840,767.293518 719.053284,766.257080 716.992188,767.313904 
	C713.574463,769.066284 715.098877,772.018005 714.527649,774.399048 
	C712.143982,774.073242 713.344604,771.520813 710.552734,770.587402 
	C709.383606,770.324280 708.103394,772.733643 705.910828,773.058716 
	C703.766418,773.376587 703.962708,775.635132 705.008423,777.094788 
	C706.449158,779.105774 706.333008,781.272034 705.819275,783.309692 
	C705.299561,785.370911 704.609619,787.084961 701.291748,785.976807 
	C695.759338,784.128967 693.101379,786.342468 692.957947,791.957214 
	C692.885132,794.806213 691.699890,796.757446 688.859680,797.296509 
	C683.569824,798.300537 679.521790,800.956665 676.216614,805.266602 
	C674.083069,808.048706 671.431335,809.636292 667.141541,809.852478 
	C663.745361,810.023560 660.401489,812.561035 656.627686,810.513489 
	C656.350891,810.363403 655.541992,810.695496 655.313660,811.030457 
	C652.348572,815.381775 649.355652,814.200439 646.174133,810.612305 
	C643.497253,814.537109 639.278870,816.453186 637.781555,821.396362 
	C637.022034,823.904114 633.017395,825.565979 629.668091,823.817200 
	C626.816589,822.328369 624.633179,822.768188 622.614929,825.590576 
	C620.045105,822.630676 616.773987,823.590576 613.717407,823.302429 
	C614.320679,829.179199 616.972961,831.296143 624.338379,832.317932 
	C628.686401,832.921204 633.085205,833.207275 636.616760,836.679932 
	C639.435547,839.451721 640.846924,842.526367 639.337158,845.990234 
	C637.622253,849.924744 633.707336,849.716736 630.192871,848.982727 
	C628.470764,848.623047 626.525879,847.774536 625.370728,846.515259 
	C619.251587,839.844421 610.889099,838.903992 602.777649,837.424194 
	C600.440125,836.997803 598.221863,836.409180 596.147766,835.392639 
	C588.642212,831.713867 580.454651,833.464172 572.625671,832.715576 
	C570.190369,832.482727 566.788574,834.119690 563.819275,834.892334 
	C560.587952,835.733215 559.246216,837.741272 562.101562,840.614868 
	C566.862366,845.405884 572.762695,848.283081 578.760254,850.885864 
	C580.736755,848.947632 578.404175,843.880737 582.862854,845.198303 
	C586.362244,846.232483 582.438843,848.731689 582.912659,851.033752 
	C587.123413,852.688965 591.436768,854.650513 593.128235,859.840759 
	C594.686523,864.622437 593.627197,870.578735 590.228394,873.559204 
	C586.687805,876.664062 581.728699,876.962769 576.711060,874.519287 
	C573.345459,872.880371 570.834900,870.615173 568.712219,867.371765 
	C563.671631,859.669739 556.652527,854.262024 547.831970,851.190796 
	C542.085266,849.189819 536.337463,847.113586 531.051514,843.988159 
	C529.207275,842.897705 527.311584,843.491577 525.984558,844.776611 
	C524.586548,846.130371 525.001709,847.921936 526.387390,849.197327 
	C528.327698,850.983276 530.253296,852.847168 528.352356,855.562561 
	C526.495911,858.214478 523.453979,857.747070 521.010925,856.922546 
	C513.281189,854.313843 506.019257,857.053345 498.621338,858.378601 
	C494.414154,859.132263 491.576691,861.780151 489.089417,865.100220 
	C485.265717,870.203979 480.861969,869.903259 477.656708,864.508423 
	C472.964294,856.610535 466.530304,855.413635 459.136871,861.063171 
	C448.252472,869.380554 438.330872,870.105469 428.191925,862.179810 
	C423.029144,858.144104 418.677826,852.927734 415.131653,846.795044 
M260.395874,628.161804 
	C261.791199,630.431274 262.908478,632.941101 264.627960,634.930420 
	C274.304932,646.125977 284.037201,657.263306 294.348877,667.906067 
	C300.602112,674.359985 309.006622,676.270813 316.601196,679.678894 
	C323.677124,682.854248 331.543457,684.384827 338.668762,687.634460 
	C346.917084,691.396240 352.984406,697.205688 354.386078,706.778198 
	C354.843475,709.902100 356.860229,712.143982 359.277771,714.070984 
	C366.133606,719.535645 373.866547,721.679565 382.614868,720.904785 
	C388.710480,720.364929 391.173157,722.249023 393.504456,728.263916 
	C389.742523,731.172974 385.553864,731.852966 380.911285,730.870178 
	C365.659882,727.641907 352.114716,719.785034 337.465210,714.928772 
	C334.098419,713.812683 330.777588,712.558167 326.422211,711.006348 
	C330.782318,718.766846 337.073090,722.968384 343.023834,726.768372 
	C369.896118,743.928040 395.801575,762.669373 427.000458,772.286316 
	C453.927277,780.586426 481.247650,784.879333 509.218079,785.554260 
	C521.665894,785.854553 534.060669,783.733765 546.533142,783.249756 
	C554.074280,782.957092 561.621704,781.390625 569.089661,779.398071 
	C580.533813,776.344666 591.446472,771.792908 602.824951,768.604675 
	C621.837158,763.277405 639.570190,754.852722 655.732910,743.678589 
	C669.385681,734.239685 682.627441,724.155273 695.867188,714.094238 
	C716.553833,698.374451 732.672241,678.911499 746.680603,657.556824 
	C765.864441,628.312195 779.992493,596.710632 789.099426,562.822571 
	C793.629456,545.965698 795.840637,529.014221 795.688538,511.602509 
	C795.480469,487.774231 793.766357,464.117218 789.358032,440.673462 
	C787.883545,432.831970 787.050903,424.858948 785.334900,417.076111 
	C782.269348,403.171539 774.313965,391.184174 769.403442,377.951050 
	C762.963928,360.597412 753.061279,344.864807 744.020142,328.771942 
	C741.268066,323.873260 738.871887,318.727325 734.990601,314.453400 
	C726.483154,305.085205 718.074219,295.621429 709.841003,286.011719 
	C698.449707,272.715851 684.627075,261.837494 670.156738,252.780014 
	C648.084778,238.964340 625.757751,225.231003 601.682922,214.806152 
	C588.025696,208.892303 573.560181,205.674210 559.434143,201.340073 
	C551.342102,198.857269 543.062256,196.160660 534.715271,195.511337 
	C518.818298,194.274689 502.813843,194.370697 486.851196,194.054749 
	C481.542908,193.949677 476.128754,193.686691 470.935303,194.541992 
	C462.563843,195.920670 454.420807,198.846390 446.028229,199.902145 
	C429.672943,201.959518 414.190430,206.846466 399.424072,213.725052 
	C388.278931,218.916748 377.685364,225.341812 367.046997,231.561188 
	C348.852386,242.198120 330.902954,253.062805 318.285370,270.860474 
	C315.630615,274.605103 313.566528,278.812592 310.481812,282.212677 
	C306.718048,286.361206 303.715118,290.936707 302.130280,296.259369 
	C300.977936,300.129364 298.514374,302.835693 295.154205,304.273621 
	C287.237030,307.661652 283.275391,315.147125 277.412750,320.635895 
	C275.907654,322.045013 275.163269,324.302277 274.184814,326.228546 
	C273.138855,328.287811 272.714142,330.505188 274.766571,332.143219 
	C276.678253,333.668945 278.638367,332.651855 280.226532,331.355957 
	C282.672211,329.360291 285.096069,327.305237 287.300293,325.051575 
	C300.097626,311.967072 312.786346,298.776184 325.601959,285.709747 
	C330.558838,280.655853 336.526611,277.540558 343.813293,277.714874 
	C347.165100,277.795044 349.921936,279.046844 351.490967,282.308197 
	C353.083160,285.617706 352.221710,288.596832 350.089569,291.139038 
	C345.651917,296.430084 340.112000,299.826813 333.006012,300.297394 
	C328.462311,300.598297 324.049835,301.637512 320.311951,304.345520 
	C303.873169,316.254883 291.007233,331.681732 280.517609,348.674347 
	C271.278076,363.641937 265.556091,380.696564 254.054810,394.471802 
	C251.433395,397.611511 249.572556,401.460846 247.759247,405.177551 
	C246.239868,408.291840 245.860931,412.310394 248.860291,414.247650 
	C252.291138,416.463623 251.535828,411.073975 253.689514,410.233765 
	C254.000626,410.112427 254.079926,409.396851 254.237579,409.024536 
	C251.177124,403.959137 251.546158,402.738098 257.209045,400.776093 
	C261.104462,399.426453 265.264740,398.784302 269.069397,397.241058 
	C278.141846,393.561188 285.621918,387.434052 292.850861,380.978546 
	C296.494781,377.724426 300.727631,375.946472 305.696716,376.842682 
	C308.573212,377.361481 310.621490,379.132019 310.955994,382.113586 
	C311.299438,385.175079 309.493195,387.103638 306.740387,388.145203 
	C305.655060,388.555878 304.499969,388.790710 303.366913,389.065430 
	C287.643860,392.878235 273.212982,398.868774 261.668915,410.949066 
	C254.893433,418.039307 247.382660,424.355072 243.149429,433.515381 
	C241.492462,437.100830 239.939148,441.946747 242.393494,444.094849 
	C245.912476,447.174774 245.852859,448.702698 242.385178,451.256775 
	C243.779190,452.500824 245.363159,453.259247 245.850235,454.461945 
	C248.008148,459.790314 250.255310,457.487396 252.569153,454.738678 
	C253.314682,453.853058 253.812714,452.758972 254.558746,451.873840 
	C258.087097,447.687805 263.317535,446.378418 268.073212,448.482513 
	C272.761292,450.556671 272.314392,454.712036 272.204224,458.752655 
	C272.057922,464.120178 268.945068,467.275635 264.335602,469.185303 
	C261.424530,470.391357 256.540344,471.965240 256.862183,473.982574 
	C257.688629,479.162598 253.183334,481.143036 252.153992,485.058258 
	C253.818726,486.394531 256.778503,487.591339 255.075180,490.267181 
	C253.758331,492.335938 253.286636,495.856201 249.549255,496.049316 
	C248.979813,493.456696 252.271896,491.858734 250.912949,490.157562 
	C247.800293,486.261017 248.221329,482.391632 250.038284,477.964325 
	C249.042862,478.335083 248.843277,479.062958 248.368042,479.465149 
	C245.952774,481.509155 243.804352,483.760620 242.927902,486.876709 
	C241.984116,490.232117 244.387848,492.264130 245.931610,494.837921 
	C248.936676,499.848022 248.612289,500.432617 245.481384,502.314056 
	C244.055786,501.347015 244.791245,499.100525 242.589020,497.917511 
	C244.540741,503.392944 241.270935,508.298065 242.312912,513.239990 
	C245.157303,514.307861 245.754166,511.461578 247.472427,510.123901 
	C251.314972,518.151917 240.175797,516.537476 241.108017,522.501038 
	C239.665436,521.537292 238.869339,521.005432 237.712036,520.232239 
	C238.752579,523.229248 240.608292,523.961365 243.108185,524.046814 
	C244.393707,521.555298 245.299713,517.677917 249.073135,521.567444 
	C249.090973,523.608459 246.368942,522.114075 246.317307,523.942932 
	C246.253601,525.976624 249.683624,526.412354 248.689697,528.812134 
	C247.005096,530.371765 244.804810,529.249451 243.101471,530.003723 
	C243.997864,533.317505 242.493011,535.865173 241.051682,538.434143 
	C238.435562,543.096802 236.788818,547.610291 238.158096,553.411621 
	C239.041168,557.153015 240.528870,561.078064 240.246414,564.997437 
	C240.019073,568.152405 241.165070,569.624756 244.456314,570.335938 
	C240.253601,571.004700 239.906158,572.949158 240.978851,576.196472 
	C241.542786,577.903625 243.440063,579.348938 243.385162,580.134888 
	C242.664459,590.450562 247.674789,599.034851 251.396912,607.983582 
	C254.129944,614.554321 257.165802,620.999023 260.395874,628.161804 
M609.660767,824.725159 
	C610.396973,823.228088 609.760315,822.495789 608.262573,822.444580 
	C606.110474,822.370911 603.954285,822.406311 601.799866,822.410400 
	C600.336548,822.413147 598.966614,822.851624 599.045654,824.536316 
	C599.120483,826.130859 600.632385,826.921509 601.922485,826.612976 
	C604.388428,826.023499 607.165894,827.138245 609.660767,824.725159 
z"/>
<path fill="#000000" opacity="1.000000" stroke="none" 
	d="
M395.082184,857.219360 
	C398.832336,853.852783 402.676880,853.216614 406.756714,855.535583 
	C410.665771,857.757446 411.063873,861.664856 410.647186,865.502136 
	C410.210724,869.521790 407.516083,871.983154 403.635712,872.932251 
	C400.113281,873.793762 396.979675,872.913391 394.907562,869.822327 
	C392.217041,865.808594 391.376709,861.634888 395.082184,857.219360 
z"/>
<path fill="#000000" opacity="1.000000" stroke="none" 
	d="
M730.363892,221.636414 
	C732.671265,219.184753 735.104919,219.140945 737.463867,220.447708 
	C740.226501,221.978058 741.448914,224.876358 740.918152,227.669449 
	C740.327271,230.779358 741.560791,232.680817 743.251282,234.828751 
	C747.508789,240.238312 747.494812,241.925873 742.995605,249.040268 
	C740.489929,240.958984 733.443542,236.557037 730.489502,229.303680 
	C729.511963,226.903305 729.338867,224.474976 730.363892,221.636414 
z"/>
<path fill="#000000" opacity="1.000000" stroke="none" 
	d="
M565.003662,155.154739 
	C558.480469,153.318359 555.547913,148.690369 557.415283,143.804977 
	C559.274414,138.941422 564.540466,136.798111 569.249756,138.990479 
	C572.769958,140.629272 573.918823,143.662903 573.589600,147.202332 
	C573.138977,152.045715 570.011047,154.438049 565.003662,155.154739 
z"/>
<path fill="#000000" opacity="1.000000" stroke="none" 
	d="
M295.781494,880.252380 
	C290.802856,880.393250 288.218018,878.008240 287.419128,873.679382 
	C286.815979,870.411011 288.003937,867.760193 290.943909,866.108765 
	C294.874908,863.900879 299.134399,865.266357 301.020691,869.234192 
	C303.258392,873.941345 301.476807,877.992065 295.781494,880.252380 
z"/>
<path fill="#000000" opacity="1.000000" stroke="none" 
	d="
M146.057434,706.609009 
	C144.513123,711.006958 141.801682,713.067688 137.507980,711.846619 
	C134.053406,710.864197 131.826660,706.500061 132.879745,702.950623 
	C133.866913,699.623291 136.038559,697.358826 139.798630,697.759521 
	C144.798996,698.292358 146.362991,701.639648 146.057434,706.609009 
z"/>
<path fill="#000000" opacity="1.000000" stroke="none" 
	d="
M616.636902,179.466080 
	C613.875671,177.398560 612.305603,174.828171 610.999023,172.137100 
	C609.462524,168.972427 610.292419,166.127319 613.265137,164.372437 
	C616.345032,162.554321 619.065247,163.712769 621.095581,166.427124 
	C623.144714,169.166550 622.856628,177.256042 620.803345,179.843826 
	C619.371948,181.647858 618.196411,180.346939 616.636902,179.466080 
z"/>
<path fill="#000000" opacity="1.000000" stroke="none" 
	d="
M751.464233,263.477539 
	C751.324219,259.262512 749.328369,255.561447 748.971252,251.654938 
	C748.684937,248.522812 750.723083,245.730225 754.122375,245.380981 
	C757.846802,244.998337 758.468079,248.265808 759.140869,250.988464 
	C759.499756,252.441132 759.385620,254.050354 758.556458,255.320755 
	C756.601074,258.316681 754.825012,261.488190 751.464233,263.477539 
z"/>
<path fill="#000000" opacity="1.000000" stroke="none" 
	d="
M485.765869,890.886597 
	C484.902374,894.361755 482.983887,896.342468 479.697083,896.099121 
	C477.076599,895.905029 474.965454,894.467712 474.173676,891.745911 
	C473.421173,889.158997 474.578888,887.147095 476.552917,885.662415 
	C480.343414,882.811523 484.306610,884.927002 485.765869,890.886597 
z"/>
<path fill="#000000" opacity="1.000000" stroke="none" 
	d="
M543.860657,125.536659 
	C544.691528,129.126968 544.356812,132.067627 540.768433,133.196396 
	C538.236023,133.993011 535.734375,133.488510 534.365417,130.811569 
	C532.899597,127.945358 534.058838,125.535706 536.318848,123.804489 
	C539.089355,121.682335 541.591064,122.701195 543.860657,125.536659 
z"/>
<path fill="#000000" opacity="1.000000" stroke="none" 
	d="
M362.205170,182.621918 
	C364.701599,185.116867 365.021942,187.616730 363.036316,190.020493 
	C361.491852,191.890152 359.246582,192.124374 357.118744,191.099136 
	C354.899506,190.029831 354.058228,187.911469 354.575195,185.640167 
	C355.511017,181.528442 358.339722,181.027115 362.205170,182.621918 
z"/>
<path fill="#000000" opacity="1.000000" stroke="none" 
	d="
M310.476776,848.084961 
	C308.279449,850.824463 305.812164,851.434937 303.318695,849.549377 
	C301.085693,847.860779 300.686676,845.343506 302.092285,842.882996 
	C303.332611,840.711731 305.551514,840.199951 307.714813,841.004150 
	C310.822449,842.159363 311.927673,844.520325 310.476776,848.084961 
z"/>
<path fill="#000000" opacity="1.000000" stroke="none" 
	d="
M890.337830,361.822754 
	C893.439880,363.188904 893.956726,365.543762 893.264771,368.103027 
	C892.676941,370.277557 890.688965,371.090454 888.613281,371.000946 
	C885.785156,370.878998 883.855347,369.307007 883.971924,366.358002 
	C884.118164,362.655640 886.403320,361.220459 890.337830,361.822754 
z"/>
<path fill="#000000" opacity="1.000000" stroke="none" 
	d="
M772.834900,715.853516 
	C776.895020,714.670227 778.257812,717.080261 779.009521,719.985779 
	C779.540222,722.037048 779.032104,723.998413 776.895325,724.984436 
	C775.202698,725.765625 773.374756,726.244141 772.037659,724.307495 
	C770.062317,721.446411 769.401672,718.613892 772.834900,715.853516 
z"/>
<path fill="#000000" opacity="1.000000" stroke="none" 
	d="
M142.735352,573.982910 
	C143.401962,574.257507 143.713348,574.386414 143.965683,574.588867 
	C146.162003,576.351013 146.989197,578.506775 145.408447,581.036133 
	C144.247299,582.894043 142.433319,583.635681 140.299789,582.842590 
	C138.151413,582.044067 137.456009,580.223267 137.550674,578.099670 
	C137.685196,575.082092 139.329636,573.665466 142.735352,573.982910 
z"/>
<path fill="#000000" opacity="1.000000" stroke="none" 
	d="
M162.823334,642.172180 
	C165.805847,643.565552 166.850433,645.576172 165.784714,648.361633 
	C165.157761,650.000305 163.931396,651.173462 162.034378,651.043823 
	C159.843872,650.894043 158.170181,649.690552 157.796036,647.531860 
	C157.190567,644.038635 159.073990,642.328674 162.823334,642.172180 
z"/>
<path fill="#000000" opacity="1.000000" stroke="none" 
	d="
M149.541138,420.475586 
	C148.732956,419.396179 148.002518,418.604828 147.833710,417.707764 
	C147.318863,414.971954 147.993179,412.607666 151.158569,412.238312 
	C153.652008,411.947418 155.143951,413.469116 155.454987,415.958130 
	C155.806656,418.772705 155.017258,420.881378 151.768906,421.121643 
	C151.151245,421.167328 150.507462,420.859833 149.541138,420.475586 
z"/>
<path fill="#000000" opacity="1.000000" stroke="none" 
	d="
M599.433350,886.073242 
	C600.426331,882.994019 602.168457,881.541992 605.115295,882.652344 
	C607.181519,883.430908 608.292480,885.078979 607.753296,887.324585 
	C607.235718,889.480164 605.681091,890.721375 603.429749,890.611206 
	C600.886536,890.486633 599.682983,888.848450 599.433350,886.073242 
z"/>
<path fill="#000000" opacity="1.000000" stroke="none" 
	d="
M661.207520,835.931885 
	C659.102356,840.124512 656.550964,839.477234 654.106567,836.873474 
	C652.477112,835.137817 652.099182,833.094604 654.157410,831.218323 
	C656.322998,829.244202 658.002991,830.180115 659.591309,832.044495 
	C660.464966,833.069824 661.231323,834.116943 661.207520,835.931885 
z"/>
<path fill="#000000" opacity="1.000000" stroke="none" 
	d="
M802.358643,309.366302 
	C802.543701,312.400970 800.995728,313.825378 798.553467,313.866455 
	C796.388916,313.902924 794.772522,312.589386 794.377625,310.311035 
	C794.054810,308.448853 794.921204,306.931885 796.601807,306.277863 
	C799.321045,305.219696 800.945557,306.918823 802.358643,309.366302 
z"/>
<path fill="#000000" opacity="1.000000" stroke="none" 
	d="
M880.313721,569.084106 
	C877.051270,566.829651 875.814453,564.407837 879.442505,561.961670 
	C880.776733,561.062134 882.667358,561.032288 884.136963,562.221741 
	C885.447571,563.282471 885.655396,564.801819 885.263062,566.304688 
	C884.660278,568.613586 882.916626,569.341492 880.313721,569.084106 
z"/>
<path fill="#000000" opacity="1.000000" stroke="none" 
	d="
M507.569122,904.468384 
	C505.935730,906.824341 504.108765,907.639282 501.848602,906.175781 
	C500.289886,905.166748 499.690063,903.686462 500.523865,901.868286 
	C501.309753,900.154663 502.685211,899.305054 504.532623,899.610413 
	C507.036774,900.024292 508.426270,901.384094 507.569122,904.468384 
z"/>
<path fill="#000000" opacity="1.000000" stroke="none" 
	d="
M238.632980,259.877991 
	C240.740555,257.583008 242.613342,257.791901 244.382126,259.688293 
	C245.602386,260.996613 246.180130,262.528381 245.053635,264.165924 
	C244.037842,265.642517 242.531891,266.521271 240.790955,265.766510 
	C238.380280,264.721466 237.211838,262.901733 238.632980,259.877991 
z"/>
<path fill="#000000" opacity="1.000000" stroke="none" 
	d="
M488.688416,141.955750 
	C491.252869,143.105927 492.504486,144.683899 491.430267,147.153183 
	C490.585846,149.094360 488.810760,149.503922 486.883759,149.229416 
	C485.015320,148.963242 483.904053,147.782745 483.854980,145.926361 
	C483.776855,142.970657 485.686829,141.991394 488.688416,141.955750 
z"/>
<path fill="#000000" opacity="1.000000" stroke="none" 
	d="
M837.421997,594.974304 
	C840.075439,593.514954 841.932983,594.374634 843.018066,596.525635 
	C844.064026,598.599121 842.716797,600.243103 841.355286,601.754395 
	C840.219604,603.014771 837.994690,602.544861 837.987793,601.992004 
	C837.958801,599.656067 834.219849,597.735962 837.421997,594.974304 
z"/>
<path fill="#000000" opacity="1.000000" stroke="none" 
	d="
M863.812378,589.628784 
	C860.234802,589.289673 859.095276,587.424194 860.282898,584.508240 
	C861.042175,582.644104 862.859314,582.301941 864.398376,583.505249 
	C866.913818,585.471802 866.765381,587.612427 863.812378,589.628784 
z"/>
<path fill="#000000" opacity="1.000000" stroke="none" 
	d="
M850.484253,371.236084 
	C851.743408,373.094330 851.902100,374.607758 850.092468,375.695038 
	C848.376221,376.726227 846.938721,375.901184 845.759521,374.648529 
	C844.754089,373.580475 844.626526,372.221649 845.519470,371.070892 
	C846.966492,369.206360 848.627930,369.843201 850.484253,371.236084 
z"/>
<path fill="#000000" opacity="1.000000" stroke="none" 
	d="
M773.229248,262.893677 
	C770.434021,260.988556 770.309509,258.970612 772.489014,256.982544 
	C773.726990,255.853333 775.518860,255.531693 776.244141,257.332184 
	C777.270020,259.878662 776.787598,262.206482 773.229248,262.893677 
z"/>
<path fill="#000000" opacity="1.000000" stroke="none" 
	d="
M307.046661,823.825317 
	C306.460175,824.190247 306.157990,824.387878 305.842438,824.412170 
	C302.720184,824.653015 301.696503,822.836304 301.871552,820.109497 
	C301.970764,818.563965 303.079651,817.488892 304.567383,817.962524 
	C307.241791,818.814026 308.735260,820.565063 307.046661,823.825317 
z"/>
<path fill="#000000" opacity="1.000000" stroke="none" 
	d="
M790.841248,702.990845 
	C788.457703,702.697205 787.060669,701.636353 787.250732,699.471069 
	C787.378723,698.012085 788.587280,697.252197 790.017212,697.124756 
	C791.672119,696.977295 792.917175,697.745544 793.484253,699.288879 
	C794.252136,701.378784 792.832153,702.248413 790.841248,702.990845 
z"/>
<path fill="#000000" opacity="1.000000" stroke="none" 
	d="
M197.451141,733.621948 
	C194.342468,734.371033 192.923996,733.054382 193.208450,730.401978 
	C193.409195,728.530212 194.966110,727.433960 196.812729,728.253052 
	C199.356094,729.381287 199.458603,731.322144 197.451141,733.621948 
z"/>
<path fill="#000000" opacity="1.000000" stroke="none" 
	d="
M707.452637,809.746948 
	C710.029236,808.881897 711.276306,809.958374 711.709839,812.017944 
	C711.967346,813.241699 711.273071,814.268738 710.162842,814.833130 
	C708.875488,815.487549 707.549683,815.417236 706.596680,814.252747 
	C705.327393,812.701843 705.725098,811.225403 707.452637,809.746948 
z"/>
<path fill="#000000" opacity="1.000000" stroke="none" 
	d="
M661.107849,844.352417 
	C660.779175,840.790405 662.702148,840.298401 665.144714,841.032166 
	C666.929810,841.568481 668.156616,843.140137 666.978577,844.867371 
	C665.248413,847.404114 663.112732,846.837830 661.107849,844.352417 
z"/>
<path fill="#000000" opacity="1.000000" stroke="none" 
	d="
M646.934937,820.890137 
	C649.486511,819.060791 650.459717,814.967163 654.455444,814.709778 
	C654.979065,817.293091 652.039856,817.456116 651.769714,819.541931 
	C651.459290,821.045410 653.806152,821.927429 653.257812,823.884094 
	C650.779663,823.860657 649.591125,821.058716 646.934937,820.890137 
z"/>
<path fill="#000000" opacity="1.000000" stroke="none" 
	d="
M667.119263,825.712280 
	C667.991943,825.343689 668.742737,825.150146 669.044495,824.672729 
	C669.725342,823.595642 670.306458,822.683777 671.758484,823.500671 
	C672.922302,824.155334 673.487976,825.122742 673.011292,826.388245 
	C672.504517,827.733582 671.378357,828.786987 669.960144,828.388794 
	C667.527405,827.705750 665.153137,826.827942 661.680115,827.351196 
	C663.821289,825.239807 665.446106,826.246765 667.119263,825.712280 
z"/>
<path fill="#000000" opacity="1.000000" stroke="none" 
	d="
M718.121704,236.723450 
	C719.175598,233.740433 720.659485,235.014191 721.753357,236.227051 
	C723.153259,237.779312 724.604614,239.418213 724.791748,242.068283 
	C721.126282,242.135895 719.738281,239.506973 718.121704,236.723450 
z"/>
<path fill="#000000" opacity="1.000000" stroke="none" 
	d="
M377.160645,835.507507 
	C379.167358,837.592834 379.061188,839.363953 376.699432,840.362488 
	C374.892151,841.126709 373.273926,840.087280 373.140778,838.198120 
	C372.973267,835.822205 374.290894,834.554443 377.160645,835.507507 
z"/>
<path fill="#000000" opacity="1.000000" stroke="none" 
	d="
M632.148315,179.380280 
	C629.903015,178.226456 628.985474,176.730576 630.778748,174.976791 
	C632.045959,173.737534 633.756836,174.086853 634.610229,175.586441 
	C635.824585,177.720230 634.795654,179.019836 632.148315,179.380280 
z"/>
<path fill="#000000" opacity="1.000000" stroke="none" 
	d="
M879.005859,467.617310 
	C876.461731,466.430084 876.098328,464.942688 878.027893,463.346222 
	C879.004089,462.538452 880.339783,462.635437 881.120850,463.752747 
	C882.627380,465.907562 881.563843,467.088898 879.005859,467.617310 
z"/>
<path fill="#000000" opacity="1.000000" stroke="none" 
	d="
M215.378967,744.767029 
	C215.017532,741.951660 216.443085,741.184448 218.547928,741.708984 
	C219.966324,742.062500 220.786011,743.373047 219.981064,744.752075 
	C218.803268,746.769775 217.157471,746.608704 215.378967,744.767029 
z"/>
<path fill="#000000" opacity="1.000000" stroke="none" 
	d="
M152.251343,756.807617 
	C152.707352,754.332336 154.010315,753.804504 155.831802,754.927185 
	C156.797348,755.522278 156.951355,756.669983 156.276062,757.538086 
	C154.846237,759.376160 153.496246,758.787537 152.251343,756.807617 
z"/>
<path fill="#000000" opacity="1.000000" stroke="none" 
	d="
M707.969910,781.049805 
	C709.322449,778.477051 711.210449,778.947571 713.645813,779.303284 
	C712.120422,782.339783 710.800232,784.211243 707.969910,781.049805 
z"/>
<path fill="#000000" opacity="1.000000" stroke="none" 
	d="
M320.993347,366.292725 
	C315.311310,366.022308 310.041016,366.835510 304.342590,365.636139 
	C306.512726,361.982361 309.715546,360.989532 312.544250,360.269989 
	C317.191254,359.087952 321.192871,356.908844 325.045258,354.274139 
	C326.983429,352.948517 328.944244,351.699402 331.262939,351.179840 
	C336.108917,350.093964 340.031860,351.896271 341.044739,355.634766 
	C342.152496,359.723419 339.801971,363.739227 335.374603,365.434845 
	C333.134125,366.292908 330.819885,366.300476 328.482300,366.274109 
	C326.151855,366.247833 323.820862,366.273224 320.993347,366.292725 
z"/>
<path fill="#000000" opacity="1.000000" stroke="none" 
	d="
M358.938599,275.868256 
	C356.248047,271.833099 357.697998,269.124329 361.071747,266.873047 
	C362.870941,265.672485 364.628387,264.406097 366.461426,263.260193 
	C369.897217,261.112366 373.205780,261.482635 375.974823,264.348633 
	C378.995636,267.475250 378.650177,270.981506 376.295807,274.347473 
	C373.632629,278.154846 363.975708,280.874023 359.769806,279.113922 
	C358.269348,278.486115 358.580780,277.340302 358.938599,275.868256 
z"/>
<path fill="#000000" opacity="1.000000" stroke="none" 
	d="
M458.188110,751.681152 
	C458.013489,747.795898 459.812683,746.021240 463.224365,745.997437 
	C465.781342,745.979675 467.304199,747.428406 467.363129,749.987183 
	C467.424103,752.635254 466.019897,754.437988 463.403809,754.969116 
	C460.962311,755.464722 459.230774,754.362610 458.188110,751.681152 
z"/>
<path fill="#000000" opacity="1.000000" stroke="none" 
	d="
M389.939087,265.562775 
	C388.384125,264.373810 387.763916,262.931183 389.355316,262.155579 
	C392.246002,260.746796 391.680145,255.564896 395.807678,256.062195 
	C398.626892,256.401855 399.524078,258.892639 398.578186,261.384247 
	C397.162628,265.113068 394.353180,266.817871 389.939087,265.562775 
z"/>
<path fill="#000000" opacity="1.000000" stroke="none" 
	d="
M303.255249,433.640503 
	C300.064026,433.536133 297.457977,437.164246 293.886749,434.629578 
	C295.601074,431.622528 295.280884,426.679779 299.722321,426.675201 
	C302.295258,426.672577 304.904419,429.607483 303.255249,433.640503 
z"/>
<path fill="#000000" opacity="1.000000" stroke="none" 
	d="
M398.985596,736.319397 
	C400.286743,733.414734 402.244629,732.702576 404.739502,733.825562 
	C406.378296,734.563232 407.240112,735.963135 406.846710,737.819580 
	C406.474731,739.575195 405.337738,740.837708 403.551971,741.021851 
	C400.495361,741.337097 399.049011,739.651367 398.985596,736.319397 
z"/>
<path fill="#000000" opacity="1.000000" stroke="none" 
	d="
M368.418365,694.730225 
	C365.490784,695.747253 363.440796,695.183899 362.313995,692.559082 
	C361.636169,690.980164 362.095917,689.593140 363.450439,688.586060 
	C365.180237,687.300110 366.958588,687.571655 368.483246,688.890442 
	C370.454987,690.595886 370.629120,692.540955 368.418365,694.730225 
z"/>
<path fill="#000000" opacity="1.000000" stroke="none" 
	d="
M368.105011,350.078369 
	C370.689819,350.277191 372.419922,351.030945 371.988190,353.680542 
	C371.720612,355.322723 370.529999,356.188660 368.894165,356.334778 
	C367.053955,356.499146 365.569702,355.759430 365.081421,353.967834 
	C364.502594,351.844208 365.579285,350.535431 368.105011,350.078369 
z"/>
<path fill="#000000" opacity="1.000000" stroke="none" 
	d="
M253.969482,533.036255 
	C255.594376,532.564453 256.866455,532.448975 257.711121,534.309692 
	C256.687866,536.095032 255.449677,538.198181 252.951233,536.837463 
	C250.483017,535.493103 252.409042,534.210022 253.969482,533.036255 
z"/>
<path fill="#000000" opacity="1.000000" stroke="none" 
	d="
M363.223145,709.231934 
	C364.541718,706.875000 366.081360,706.603333 367.617737,708.411682 
	C368.501251,709.451538 368.047028,710.735107 367.012970,711.416260 
	C364.882477,712.819885 363.696014,711.781189 363.223145,709.231934 
z"/>
<path fill="#000000" opacity="1.000000" stroke="none" 
	d="
M249.682022,551.777588 
	C247.955841,554.019592 247.955841,554.019592 245.148712,555.325500 
	C245.173141,553.398010 243.982208,551.399658 246.067917,550.138733 
	C247.406219,549.329590 248.935196,549.779724 249.682022,551.777588 
z"/>
</svg>